# xmcd CD database file generated by Grip 3.0.5
# 
# Track frame offsets:
#       150
#       13079
#       32959
#       51889
#       67643
#       81401
#       103905
#       124924
#       144264
#       168676
# 
# Disc length: 2578 seconds
# 
# Revision: 4
# Processed by: cddbd v1.5PL3 Copyright (c) Steve Scherf et al.
# Submitted via: Grip 3.0.5
# 
DISCID=890a100a
DTITLE=Adult. - Anxiety Always
DYEAR=2003
DGENRE=Electronic
TTITLE0=The Cold Call
TTITLE1=Shake Your Head
TTITLE2=Glue Your Eyelids Together
TTITLE3=Blank Eyed, Nose Bleed
TTITLE4=Turn Your Back
TTITLE5=People, You can Confuse
TTITLE6=Nothing of the Kind
TTITLE7=Nervous (Wreck)
TTITLE8=We Know How to Have Fun
TTITLE9=Kick in the Shin
EXTD=
EXTT0=
EXTT1=
EXTT2=
EXTT3=
EXTT4=
EXTT5=
EXTT6=
EXTT7=
EXTT8=
EXTT9=
PLAYORDER=
